<?xml version="1.0" encoding="utf-8"?>
<!-- Svg Vector Icons : http://www.onlinewebfonts.com/icon -->
<!DOCTYPE svg PUBLIC "-//W3C//DTD SVG 1.1//EN" "http://www.w3.org/Graphics/SVG/1.1/DTD/svg11.dtd">
<svg version="1.1" xmlns="http://www.w3.org/2000/svg" xmlns:xlink="http://www.w3.org/1999/xlink" x="0px" y="0px" fill = "rgba(12,12,12,.04)" viewBox="0 0 1000 1000" enable-background="new 0 0 1000 1000" xml:space="preserve">
<metadata> Svg Vector Icons : http://www.onlinewebfonts.com/icon </metadata>
<g><g transform="translate(0.000000,511.000000) scale(0.100000,-0.100000)"><path d="M2271.1,4557.2C1297.5,4403.3,505.8,3721.5,214,2791.9C102,2434.1,70,1962.3,132,1602.4c64-369.8,225.9-769.7,333.9-825.7c123.9-64,281.9,10,307.9,145.9c10,52-6,106-70,251.9c-134,309.9-169.9,489.8-169.9,863.6c2,277.9,8,345.9,54,513.8c309.9,1169.5,1497.4,1851.2,2648.9,1523.4c355.9-100,735.7-331.9,975.6-593.8c321.9-351.8,531.8-825.7,559.8-1259.5c16-245.9,24-283.9,80-339.9c70-70,149.9-84,235.9-44c94,46,124,124,138,359.9c44,727.7,505.8,1409.4,1179.5,1737.3c1217.5,597.7,2656.9-64,3006.8-1383.4c46-167.9,52-235.9,54-513.8c2-367.8-32-539.8-171.9-865.6c-62-141.9-78-199.9-68-251.9c26-134,183.9-207.9,307.9-143.9c46,24,80,72,130,177.9c313.9,659.7,313.9,1465.4,2,2151.1c-159.9,345.9-475.8,735.7-797.7,977.6c-191.9,146-615.7,349.9-849.6,411.8c-921.6,243.9-1883.2-26-2525-707.7c-163.9-173.9-361.9-455.8-437.8-619.8c-26-54-50-100-56-100c-6,0-48,74-94,165.9C4426.2,4167.4,3316.7,4725.1,2271.1,4557.2z"/><path d="M3186.7,2422.1c-22-14-413.8-487.8-865.6-1053.6L1497.4,338.9l-639.7-10l-639.7-10l-58-66C80,163,80,55,160-34.9l58-66l677.7-6c443.8-4,701.7,0,749.7,14c64,20,161.9,135.9,823.7,961.6c413.8,517.8,755.7,939.6,759.7,939.6c4,0,359.9-883.6,791.7-1963.2c623.8-1563.3,795.7-1977.2,841.7-2019.2c98-93.9,257.9-68,321.9,50c12,24,110,389.8,215.9,813.7l191.9,769.7l169.9,10c98,6,185.9,22,211.9,40c62,40,82,92,435.8,1155.5c171.9,519.8,315.9,943.6,319.9,939.6c4-4,339.9-841.7,747.7-1865.2c501.8-1253.5,759.7-1875.2,793.7-1909.2c58-60,191.9-68,267.9-18c40,26,135.9,245.9,457.8,1053.6l407.8,1019.6l187.9,8c183.9,6,189.9,8,247.9,72c80,90,80,197.9,0,287.9l-58,66h-299.9c-289.9,0-301.9-2-351.9-48c-34-32-149.9-295.9-373.8-859.6c-177.9-445.8-329.9-819.7-337.9-827.7c-8-10-349.9,821.7-759.7,1849.3c-407.9,1025.6-757.7,1889.2-775.7,1919.2c-36,64-102,96-191.9,96c-143.9,0-133.9,22-581.8-1319.5L5695.7-110.9h-175.9c-269.9,0-253.9,24-419.8-635.7c-74-299.9-140-549.8-145.9-555.8c-4-6-339.9,815.7-741.7,1825.2c-537.8,1343.5-747.7,1847.3-783.7,1881.2C3372.7,2454,3258.7,2462.1,3186.7,2422.1z"/><path d="M1869.3-598.7c-68-68-86-142-56-221.9c22-54,2998.8-3454.6,3068.7-3502.6c80-58,155.9-58,233.9-2c62,46,2381,2774.9,2421,2852.8c42,78,26,161.9-46,233.9c-73.9,74-161.9,87.9-243.9,42c-24-14-539.8-611.7-1147.5-1327.5L4996-3829.4L3576.6-2204.1C2794.9-1312.4,2137.2-570.7,2113.2-556.7C2031.2-510.7,1943.3-524.7,1869.3-598.7z"/></g></g>
</svg>