<?xml version="1.0" encoding="iso-8859-1"?>
<!-- Generator: Adobe Illustrator 19.0.0, SVG Export Plug-In . SVG Version: 6.00 Build 0)  -->
<svg version="1.1" id="Capa_1" xmlns="http://www.w3.org/2000/svg" xmlns:xlink="http://www.w3.org/1999/xlink" x="0px" y="0px"
	 viewBox="0 0 512.001 512.001" style="enable-background:new 0 0 512.001 512.001;" xml:space="preserve"  fill="#55c882">
<g>
	<g>
		<path d="M154.4,351.6c-1.86-1.86-4.44-2.93-7.07-2.93c-2.64,0-5.22,1.07-7.08,2.93s-2.92,4.44-2.92,7.07s1.06,5.21,2.92,7.07
			s4.44,2.93,7.08,2.93c2.63,0,5.21-1.07,7.07-2.93s2.92-4.44,2.92-7.07S156.26,353.461,154.4,351.6z"/>
	</g>
</g>
<g>
	<g>
		<path d="M443.97,390.865l-69.38-69.381c-18.677-18.676-49.065-18.676-67.742,0l-15.822,15.822c-7.514,7.514-19.74,7.514-27.252,0
			l-89.08-89.08c-7.514-7.513-7.514-19.739,0-27.252l15.822-15.822c18.676-18.677,18.676-49.065,0-67.742l-69.381-69.38
			C112.088,58.983,100.059,54,87.264,54C74.47,54,62.44,58.983,53.393,68.03l-16.601,16.6C13.066,108.357,0,139.902,0,173.456
			s13.066,65.099,36.792,88.826l75.612,75.612c3.905,3.905,10.237,3.905,14.143,0c3.905-3.905,3.905-10.237,0-14.143l-75.613-75.612
			C30.986,228.19,20,201.667,20,173.456s10.986-54.734,30.935-74.683l16.601-16.601C72.805,76.902,79.812,74,87.264,74
			c7.452,0,14.459,2.902,19.729,8.172l69.381,69.38c10.879,10.878,10.879,28.579,0,39.457l-8.994,8.994l-63.692-63.692
			c-3.905-3.905-10.237-3.904-14.142,0c-3.905,3.905-3.905,10.237,0,14.143l64.668,64.668c-3.363,5.867-5.165,12.533-5.165,19.478
			c0,10.49,4.085,20.351,11.502,27.769l89.08,89.08c7.417,7.417,17.279,11.502,27.769,11.502c6.946,0,13.611-1.801,19.478-5.164
			l73.403,73.403c1.953,1.953,4.512,2.929,7.071,2.929c2.559,0,5.119-0.977,7.071-2.929c3.905-3.905,3.905-10.237,0-14.143
			l-72.426-72.427l8.994-8.994c10.878-10.879,28.579-10.878,39.457,0l69.381,69.381c5.27,5.27,8.172,12.276,8.172,19.729
			s-2.902,14.459-8.172,19.729l-16.601,16.601C393.279,481.014,366.756,492,338.544,492c-28.212,0-54.735-10.986-74.683-30.935
			l-83.767-83.767c-3.905-3.905-10.237-3.905-14.143,0c-3.905,3.905-3.905,10.237,0,14.142l83.767,83.767
			C273.445,498.934,304.991,512,338.544,512c33.553,0,65.099-13.066,88.825-36.792l16.601-16.601
			c9.047-9.047,14.03-21.077,14.03-33.871C458,411.941,453.017,399.912,443.97,390.865z"/>
	</g>
</g>
<g>
	<g>
		<path d="M79.16,111.79c-1.86-1.86-4.44-2.93-7.07-2.93c-2.63,0-5.21,1.07-7.07,2.93c-1.86,1.86-2.93,4.43-2.93,7.07
			c0,2.63,1.07,5.21,2.93,7.07c1.86,1.86,4.44,2.93,7.07,2.93c2.63,0,5.21-1.07,7.07-2.93c1.86-1.86,2.93-4.44,2.93-7.07
			C82.09,116.22,81.02,113.651,79.16,111.79z"/>
	</g>
</g>
<g>
	<g>
		<path d="M394.207,0h-60.618c-64.951,0-117.793,52.842-117.793,117.793c0,51.511,33.157,96.539,81.554,112.109V256
			c0,3.756,2.105,7.196,5.45,8.905c1.436,0.733,2.995,1.095,4.549,1.095c2.067,0,4.124-0.64,5.861-1.897l39.433-28.517h41.565
			c64.951,0,117.793-52.842,117.793-117.793S459.158,0,394.207,0z M394.207,215.586h-44.802c-2.104,0-4.155,0.664-5.86,1.897
			l-26.195,18.944v-14.064c0-4.588-3.123-8.588-7.573-9.701c-43.559-10.896-73.98-49.907-73.98-94.869
			C235.797,63.87,279.667,20,333.59,20h60.618C448.13,20,492,63.87,492,117.793C492,171.716,448.13,215.586,394.207,215.586z"/>
	</g>
</g>
<g>
	<g>
		<path d="M315.55,110.72c-1.86-1.86-4.44-2.93-7.07-2.93c-2.63,0-5.21,1.07-7.07,2.93c-1.86,1.86-2.93,4.44-2.93,7.07
			c0,2.64,1.07,5.21,2.93,7.07s4.44,2.93,7.07,2.93s5.21-1.07,7.07-2.93c1.86-1.86,2.93-4.43,2.93-7.07
			C318.48,115.16,317.41,112.581,315.55,110.72z"/>
	</g>
</g>
<g>
	<g>
		<path d="M370.73,110.72c-1.86-1.86-4.44-2.93-7.07-2.93c-2.64,0-5.22,1.07-7.07,2.93c-1.87,1.86-2.93,4.44-2.93,7.07
			c0,2.64,1.06,5.21,2.93,7.07c1.85,1.86,4.43,2.93,7.07,2.93c2.63,0,5.21-1.07,7.07-2.93c1.86-1.86,2.93-4.43,2.93-7.07
			C373.66,115.16,372.59,112.581,370.73,110.72z"/>
	</g>
</g>
<g>
	<g>
		<path d="M425.9,110.72c-1.86-1.86-4.43-2.93-7.07-2.93c-2.63,0-5.21,1.07-7.07,2.93c-1.86,1.86-2.93,4.44-2.93,7.07
			c0,2.64,1.07,5.21,2.93,7.07s4.44,2.93,7.07,2.93c2.64,0,5.21-1.07,7.07-2.93c1.86-1.86,2.93-4.43,2.93-7.07
			C428.83,115.16,427.76,112.581,425.9,110.72z"/>
	</g>
</g>
</svg>
