<svg xmlns="http://www.w3.org/2000/svg" viewBox="0 0 64 64" fill="#55c882"><title>LEAF_TREE-98</title><g id="Layer_94" data-name="Layer 94"><path d="M37,5H53.12A5.89,5.89,0,0,1,59,10.88v7l-3.44-1.46L60,27l4.44-10.53L61,17.93v-7A7.89,7.89,0,0,0,53.12,3H37a1,1,0,0,0,0,2Z"/><path d="M60,36a1,1,0,0,0-1,1V53.12A5.89,5.89,0,0,1,53.12,59h-7l1.46-3.44L37,60l10.53,4.44L46.07,61h7A7.89,7.89,0,0,0,61,53.12V37A1,1,0,0,0,60,36Z"/><path d="M27,59H10.88A5.89,5.89,0,0,1,5,53.12v-7l3.44,1.46L4,37-.44,47.53,3,46.07v7A7.89,7.89,0,0,0,10.88,61H27a1,1,0,0,0,0-2Z"/><path d="M4,28a1,1,0,0,0,1-1V10.88A5.89,5.89,0,0,1,10.88,5h7L16.47,8.44,27,4,16.47-.44,17.93,3h-7A7.89,7.89,0,0,0,3,10.88V27A1,1,0,0,0,4,28Z"/><path d="M37.62,37.8a1,1,0,0,0,.13-.49V20.44a1,1,0,0,0-.13-.49l-4.75-8.44a1,1,0,0,0-1.74,0l-4.75,8.44a1,1,0,0,0-.13.49V37.31a1,1,0,0,0,.13.49L31,46v6a1,1,0,0,0,2,0V46ZM28.25,37V20.7L32,14l3.75,6.66V37L33,41.94V33.4a1,1,0,0,0-2,0v8.54Z"/><path d="M16.75,53a1,1,0,0,0,1-1V46.06l4.58-6.62a1,1,0,0,0,.18-.57V25.13a1,1,0,0,0-.18-.57l-4.75-6.87a1,1,0,0,0-1.65,0l-4.75,6.88a1,1,0,0,0-.18.57V38.88a1,1,0,0,0,.18.57l4.58,6.62V52A1,1,0,0,0,16.75,53ZM13,38.56V25.44L16.75,20l3.75,5.43V38.56l-2.75,4V38a1,1,0,1,0-2,0v4.5Z"/><path d="M47.25,53a1,1,0,0,0,1-1V46.06l4.58-6.62a1,1,0,0,0,.18-.57V25.13a1,1,0,0,0-.18-.57l-4.75-6.87a1,1,0,0,0-1.64,0l-4.75,6.88a1,1,0,0,0-.18.57V38.88a1,1,0,0,0,.18.57l4.58,6.62V52A1,1,0,0,0,47.25,53ZM43.49,38.56V25.44L47.25,20,51,25.44V38.56l-2.75,4V38a1,1,0,0,0-2,0v4.5Z"/></g></svg>